<svg width="76" height="76" viewBox="0 0 76 76" fill="none" xmlns="http://www.w3.org/2000/svg">
<rect width="76" height="76" rx="16" fill="#1F1F23"/>
<path opacity="0.95" d="M38.5 38.5L38.5 29.5" stroke="#A3A3A3" stroke-opacity="0.8" stroke-width="6" stroke-linecap="round"/>
<path opacity="0.95" d="M38.5 38.5L45.5 31.5" stroke="#A3A3A3" stroke-opacity="0.8" stroke-width="6" stroke-linecap="round"/>
<path opacity="0.95" d="M38.5 38.5H46.5" stroke="#A3A3A3" stroke-opacity="0.8" stroke-width="6" stroke-linecap="round"/>
<path opacity="0.95" d="M38.5 38.5L46.5 46.5" stroke="#A3A3A3" stroke-opacity="0.8" stroke-width="6" stroke-linecap="round"/>
<path opacity="0.95" d="M38.5 37.5L38.5 52.5" stroke="#A3A3A3" stroke-opacity="0.8" stroke-width="6" stroke-linecap="round"/>
<path opacity="0.95" d="M38.5 38.5L22.5 53.5" stroke="#A3A3A3" stroke-opacity="0.8" stroke-width="6" stroke-linecap="round"/>
<path opacity="0.95" d="M37.5 38.5L12.5 38.5" stroke="#A3A3A3" stroke-opacity="0.8" stroke-width="6" stroke-linecap="round"/>
<path opacity="0.95" d="M37.5 38.5L17.5 17.5" stroke="#A3A3A3" stroke-opacity="0.8" stroke-width="6" stroke-linecap="round"/>
<path opacity="0.95" d="M38.5 38.5L38.5 12.5" stroke="#F1F1F1" stroke-opacity="0.8" stroke-width="6" stroke-linecap="round"/>
<path opacity="0.95" d="M38.5 38.5L53.5 22.5" stroke="#F1F1F1" stroke-opacity="0.8" stroke-width="6" stroke-linecap="round"/>
<path opacity="0.95" d="M38.5 38.5H59.5" stroke="#F1F1F1" stroke-opacity="0.8" stroke-width="6" stroke-linecap="round"/>
<path opacity="0.95" d="M38.5 38.5L57.5 57.5" stroke="#F1F1F1" stroke-opacity="0.8" stroke-width="6" stroke-linecap="round"/>
<path opacity="0.95" d="M38.5 37.5V69.5" stroke="#F1F1F1" stroke-opacity="0.8" stroke-width="6" stroke-linecap="round"/>
<path opacity="0.95" d="M38.0006 38L9.45117 66.5494" stroke="#F1F1F1" stroke-opacity="0.8" stroke-width="6" stroke-linecap="round"/>
<path opacity="0.95" d="M37.5 38.5L9.5 38.5" stroke="#F1F1F1" stroke-opacity="0.8" stroke-width="6" stroke-linecap="round"/>
<path opacity="0.95" d="M37.5 38.5L27.5 27.5" stroke="#F1F1F1" stroke-opacity="0.8" stroke-width="6" stroke-linecap="round"/>
<path d="M38 72C56.7777 72 72 56.7777 72 38C72 19.2223 56.7777 4 38 4C19.2223 4 4 19.2223 4 38C4 56.7777 19.2223 72 38 72Z" stroke="#F8F8F8"/>
</svg>


